<mxfile host="app.diagrams.net" agent="Mozilla/5.0 (Macintosh; Intel Mac OS X 10_15_7) AppleWebKit/537.36 (KHTML, like Gecko) Chrome/136.0.0.0 Safari/537.36" version="26.1.3">
  <diagram name="Page-1" id="PqwVsJLM_JnpqmstU0CG">
    <mxGraphModel dx="1434" dy="676" grid="1" gridSize="10" guides="1" tooltips="1" connect="1" arrows="1" fold="1" page="1" pageScale="1" pageWidth="850" pageHeight="1100" math="0" shadow="0">
      <root>
        <mxCell id="0" />
        <mxCell id="1" parent="0" />
        <mxCell id="FgheI3bgiq25w88jw5C5-1" value="" style="rounded=1;whiteSpace=wrap;html=1;fillColor=none;" vertex="1" parent="1">
          <mxGeometry x="40" y="200" width="360" height="280" as="geometry" />
        </mxCell>
        <mxCell id="FgheI3bgiq25w88jw5C5-2" value="dns" style="rounded=1;whiteSpace=wrap;html=1;" vertex="1" parent="1">
          <mxGeometry x="500" y="10" width="120" height="60" as="geometry" />
        </mxCell>
        <mxCell id="FgheI3bgiq25w88jw5C5-3" value="" style="rounded=1;whiteSpace=wrap;html=1;fillColor=none;" vertex="1" parent="1">
          <mxGeometry x="680" y="200" width="360" height="280" as="geometry" />
        </mxCell>
        <mxCell id="FgheI3bgiq25w88jw5C5-6" value="cluster-1.datacenter-1.internal" style="text;html=1;align=center;verticalAlign=middle;whiteSpace=wrap;rounded=0;" vertex="1" parent="1">
          <mxGeometry x="130" y="170" width="180" height="30" as="geometry" />
        </mxCell>
        <mxCell id="FgheI3bgiq25w88jw5C5-7" value="cluster-2.datacenter-1.internal" style="text;html=1;align=center;verticalAlign=middle;whiteSpace=wrap;rounded=0;" vertex="1" parent="1">
          <mxGeometry x="770" y="170" width="180" height="30" as="geometry" />
        </mxCell>
        <mxCell id="FgheI3bgiq25w88jw5C5-10" value="service-1.namespace-x" style="rounded=1;whiteSpace=wrap;html=1;" vertex="1" parent="1">
          <mxGeometry x="145" y="320" width="150" height="40" as="geometry" />
        </mxCell>
        <mxCell id="FgheI3bgiq25w88jw5C5-11" value="&lt;span style=&quot;color: rgb(0, 0, 0); font-family: Helvetica; font-size: 12px; font-style: normal; font-variant-ligatures: normal; font-variant-caps: normal; font-weight: 400; letter-spacing: normal; orphans: 2; text-align: center; text-indent: 0px; text-transform: none; widows: 2; word-spacing: 0px; -webkit-text-stroke-width: 0px; white-space: normal; background-color: rgb(251, 251, 251); text-decoration-thickness: initial; text-decoration-style: initial; text-decoration-color: initial; float: none; display: inline !important;&quot;&gt;service-1.namespace-x.cluster-1.datacenter-1.internal&lt;/span&gt;" style="rounded=1;whiteSpace=wrap;html=1;" vertex="1" parent="1">
          <mxGeometry x="120" y="390" width="200" height="60" as="geometry" />
        </mxCell>
        <mxCell id="FgheI3bgiq25w88jw5C5-12" value="application-1" style="rounded=1;whiteSpace=wrap;html=1;" vertex="1" parent="1">
          <mxGeometry x="180" y="250" width="80" height="40" as="geometry" />
        </mxCell>
        <mxCell id="FgheI3bgiq25w88jw5C5-13" value="" style="endArrow=classic;html=1;rounded=0;entryX=0.5;entryY=1;entryDx=0;entryDy=0;exitX=0.5;exitY=0;exitDx=0;exitDy=0;" edge="1" parent="1" source="FgheI3bgiq25w88jw5C5-10" target="FgheI3bgiq25w88jw5C5-12">
          <mxGeometry width="50" height="50" relative="1" as="geometry">
            <mxPoint x="180" y="590" as="sourcePoint" />
            <mxPoint x="230" y="540" as="targetPoint" />
          </mxGeometry>
        </mxCell>
        <mxCell id="FgheI3bgiq25w88jw5C5-14" value="" style="endArrow=classic;html=1;rounded=0;entryX=0.5;entryY=1;entryDx=0;entryDy=0;exitX=0.5;exitY=0;exitDx=0;exitDy=0;" edge="1" parent="1" source="FgheI3bgiq25w88jw5C5-11" target="FgheI3bgiq25w88jw5C5-10">
          <mxGeometry width="50" height="50" relative="1" as="geometry">
            <mxPoint x="320" y="400" as="sourcePoint" />
            <mxPoint x="370" y="350" as="targetPoint" />
          </mxGeometry>
        </mxCell>
        <mxCell id="FgheI3bgiq25w88jw5C5-15" value="ingress" style="text;html=1;align=center;verticalAlign=middle;whiteSpace=wrap;rounded=0;" vertex="1" parent="1">
          <mxGeometry x="270" y="370" width="50" height="20" as="geometry" />
        </mxCell>
        <mxCell id="FgheI3bgiq25w88jw5C5-16" value="service" style="text;html=1;align=center;verticalAlign=middle;whiteSpace=wrap;rounded=0;" vertex="1" parent="1">
          <mxGeometry x="245" y="300" width="50" height="20" as="geometry" />
        </mxCell>
        <mxCell id="FgheI3bgiq25w88jw5C5-17" value="pod" style="text;html=1;align=center;verticalAlign=middle;whiteSpace=wrap;rounded=0;" vertex="1" parent="1">
          <mxGeometry x="195" y="230" width="50" height="20" as="geometry" />
        </mxCell>
        <mxCell id="FgheI3bgiq25w88jw5C5-18" value="service-1.namespace-y" style="rounded=1;whiteSpace=wrap;html=1;" vertex="1" parent="1">
          <mxGeometry x="785" y="320" width="150" height="40" as="geometry" />
        </mxCell>
        <mxCell id="FgheI3bgiq25w88jw5C5-19" value="&lt;span style=&quot;color: rgb(0, 0, 0); font-family: Helvetica; font-size: 12px; font-style: normal; font-variant-ligatures: normal; font-variant-caps: normal; font-weight: 400; letter-spacing: normal; orphans: 2; text-align: center; text-indent: 0px; text-transform: none; widows: 2; word-spacing: 0px; -webkit-text-stroke-width: 0px; white-space: normal; background-color: rgb(251, 251, 251); text-decoration-thickness: initial; text-decoration-style: initial; text-decoration-color: initial; float: none; display: inline !important;&quot;&gt;service-1.namespace-y.cluster-2.datacenter-1.internal&lt;/span&gt;" style="rounded=1;whiteSpace=wrap;html=1;" vertex="1" parent="1">
          <mxGeometry x="760" y="390" width="200" height="60" as="geometry" />
        </mxCell>
        <mxCell id="FgheI3bgiq25w88jw5C5-20" value="application-1" style="rounded=1;whiteSpace=wrap;html=1;" vertex="1" parent="1">
          <mxGeometry x="820" y="250" width="80" height="40" as="geometry" />
        </mxCell>
        <mxCell id="FgheI3bgiq25w88jw5C5-21" value="" style="endArrow=classic;html=1;rounded=0;entryX=0.5;entryY=1;entryDx=0;entryDy=0;exitX=0.5;exitY=0;exitDx=0;exitDy=0;" edge="1" parent="1" source="FgheI3bgiq25w88jw5C5-18" target="FgheI3bgiq25w88jw5C5-20">
          <mxGeometry width="50" height="50" relative="1" as="geometry">
            <mxPoint x="820" y="590" as="sourcePoint" />
            <mxPoint x="870" y="540" as="targetPoint" />
          </mxGeometry>
        </mxCell>
        <mxCell id="FgheI3bgiq25w88jw5C5-22" value="" style="endArrow=classic;html=1;rounded=0;entryX=0.5;entryY=1;entryDx=0;entryDy=0;exitX=0.5;exitY=0;exitDx=0;exitDy=0;" edge="1" parent="1" source="FgheI3bgiq25w88jw5C5-19" target="FgheI3bgiq25w88jw5C5-18">
          <mxGeometry width="50" height="50" relative="1" as="geometry">
            <mxPoint x="960" y="400" as="sourcePoint" />
            <mxPoint x="1010" y="350" as="targetPoint" />
          </mxGeometry>
        </mxCell>
        <mxCell id="FgheI3bgiq25w88jw5C5-23" value="ingress" style="text;html=1;align=center;verticalAlign=middle;whiteSpace=wrap;rounded=0;" vertex="1" parent="1">
          <mxGeometry x="910" y="370" width="50" height="20" as="geometry" />
        </mxCell>
        <mxCell id="FgheI3bgiq25w88jw5C5-24" value="service" style="text;html=1;align=center;verticalAlign=middle;whiteSpace=wrap;rounded=0;" vertex="1" parent="1">
          <mxGeometry x="885" y="300" width="50" height="20" as="geometry" />
        </mxCell>
        <mxCell id="FgheI3bgiq25w88jw5C5-25" value="pod" style="text;html=1;align=center;verticalAlign=middle;whiteSpace=wrap;rounded=0;" vertex="1" parent="1">
          <mxGeometry x="835" y="230" width="50" height="20" as="geometry" />
        </mxCell>
        <mxCell id="FgheI3bgiq25w88jw5C5-34" value="" style="endArrow=classic;html=1;rounded=0;entryX=0.5;entryY=1;entryDx=0;entryDy=0;exitX=0;exitY=0.75;exitDx=0;exitDy=0;dashed=1;dashPattern=1 2;" edge="1" parent="1" source="FgheI3bgiq25w88jw5C5-20" target="FgheI3bgiq25w88jw5C5-11">
          <mxGeometry width="50" height="50" relative="1" as="geometry">
            <mxPoint x="920" y="590" as="sourcePoint" />
            <mxPoint x="970" y="540" as="targetPoint" />
            <Array as="points">
              <mxPoint x="560" y="280" />
              <mxPoint x="560" y="540" />
              <mxPoint x="220" y="540" />
            </Array>
          </mxGeometry>
        </mxCell>
        <mxCell id="FgheI3bgiq25w88jw5C5-35" value="" style="endArrow=classic;html=1;rounded=0;entryX=0.75;entryY=1;entryDx=0;entryDy=0;exitX=0;exitY=0.25;exitDx=0;exitDy=0;" edge="1" parent="1" source="FgheI3bgiq25w88jw5C5-20" target="FgheI3bgiq25w88jw5C5-2">
          <mxGeometry width="50" height="50" relative="1" as="geometry">
            <mxPoint x="790" y="170" as="sourcePoint" />
            <mxPoint x="840" y="120" as="targetPoint" />
            <Array as="points">
              <mxPoint x="590" y="260" />
            </Array>
          </mxGeometry>
        </mxCell>
        <mxCell id="FgheI3bgiq25w88jw5C5-36" value="" style="endArrow=classic;html=1;rounded=0;entryX=0.25;entryY=1;entryDx=0;entryDy=0;exitX=1;exitY=0.25;exitDx=0;exitDy=0;" edge="1" parent="1" source="FgheI3bgiq25w88jw5C5-12" target="FgheI3bgiq25w88jw5C5-2">
          <mxGeometry width="50" height="50" relative="1" as="geometry">
            <mxPoint x="470" y="180" as="sourcePoint" />
            <mxPoint x="520" y="130" as="targetPoint" />
            <Array as="points">
              <mxPoint x="530" y="260" />
            </Array>
          </mxGeometry>
        </mxCell>
        <mxCell id="FgheI3bgiq25w88jw5C5-37" value="" style="endArrow=classic;html=1;rounded=0;exitX=1;exitY=0.75;exitDx=0;exitDy=0;entryX=0.5;entryY=1;entryDx=0;entryDy=0;dashed=1;" edge="1" parent="1" source="FgheI3bgiq25w88jw5C5-12" target="FgheI3bgiq25w88jw5C5-19">
          <mxGeometry width="50" height="50" relative="1" as="geometry">
            <mxPoint x="480" y="350" as="sourcePoint" />
            <mxPoint x="530" y="300" as="targetPoint" />
            <Array as="points">
              <mxPoint x="530" y="280" />
              <mxPoint x="530" y="570" />
              <mxPoint x="860" y="570" />
            </Array>
          </mxGeometry>
        </mxCell>
      </root>
    </mxGraphModel>
  </diagram>
</mxfile>
